<svg width="33" height="30" viewBox="0 0 33 30" fill="none" xmlns="http://www.w3.org/2000/svg">
<path d="M25.3786 8.35001H24.2833L22.0126 2.09887C21.8246 1.58342 21.4831 1.13802 21.034 0.822747C20.585 0.507473 20.0501 0.337489 19.5014 0.335724H17.3643C16.6296 0.335724 16.0286 0.936795 16.0286 1.67144C16.0286 2.40608 16.6296 3.00715 17.3643 3.00715H19.5014L21.4516 8.35001H15.0268L14.5459 7.0143H14.6661C15.4008 7.0143 16.0019 6.41322 16.0019 5.67858C16.0019 4.94394 15.4008 4.34287 14.6661 4.34287H10.6857C9.95107 4.34287 9.35 4.94394 9.35 5.67858C9.35 6.41322 9.95107 7.0143 10.6857 7.0143H11.6875L14.1185 13.6929H13.2236C12.6359 10.7142 10.1381 8.51029 7.0125 8.36337C3.2725 8.17637 0 11.2886 0 15.0286C0 18.7686 2.93857 21.7072 6.67857 21.7072C9.96443 21.7072 12.6225 19.4498 13.2236 16.3643H18.8336C19.4213 19.3429 21.9191 21.5469 25.0446 21.6938C28.7846 21.8674 32.0571 18.7686 32.0571 15.0152C32.0571 11.2886 29.1186 8.35001 25.3786 8.35001ZM8.01429 16.3643H10.4453C9.88429 18.0072 8.30814 19.1426 6.41143 19.0224C4.42121 18.9022 2.76493 17.2192 2.67143 15.2156C2.57793 12.8781 4.36779 11.0214 6.67857 11.0214C8.45507 11.0214 9.911 12.1301 10.4453 13.6929H8.01429C7.27964 13.6929 6.67857 14.2939 6.67857 15.0286C6.67857 15.7632 7.27964 16.3643 8.01429 16.3643ZM18.8336 13.6929H16.9636L15.9885 11.0214H20.0357C19.448 11.7962 19.0206 12.6911 18.8336 13.6929ZM25.2183 19.0357C23.1613 18.9556 21.4249 17.2058 21.3714 15.1354C21.3447 13.8532 21.8924 12.7312 22.7739 11.9832L23.6021 14.2539C23.8559 14.9484 24.6172 15.3091 25.3118 15.0553C26.0064 14.8015 26.367 14.0402 26.1132 13.3456L25.2717 11.0348L25.2851 11.0214C25.8206 11.0032 26.3543 11.0936 26.8539 11.2873C27.3535 11.4811 27.8087 11.774 28.1919 12.1485C28.5751 12.523 28.8785 12.9713 29.0837 13.4663C29.2889 13.9613 29.3916 14.4928 29.3857 15.0286C29.3857 17.326 27.5424 19.1159 25.2183 19.0357ZM14.6929 25.7143H9.35L17.3643 29.7214V27.05H22.7071L14.6929 23.0429V25.7143Z" fill="url(#paint0_linear_48_92)"/>
<defs>
<linearGradient id="paint0_linear_48_92" x1="16.0286" y1="0.335724" x2="16.0286" y2="29.7214" gradientUnits="userSpaceOnUse">
<stop stop-color="#FFBB00"/>
<stop offset="1" stop-color="#F2A60C"/>
</linearGradient>
</defs>
</svg>
