<svg width="28" height="22" viewBox="0 0 28 22" fill="none" xmlns="http://www.w3.org/2000/svg">
<path d="M23.9937 8.35713C23.8619 8.55185 23.7839 8.77789 23.7675 9.01243C23.7511 9.24696 23.7969 9.48167 23.9002 9.69285C24.2315 10.4662 24.4652 11.2783 24.5948 12.1105C24.9386 14.2612 24.617 16.4656 23.6731 18.4284C23.5585 18.6437 23.3871 18.8235 23.1775 18.9483C22.968 19.0731 22.7282 19.1381 22.4843 19.1363H5.58755C5.34228 19.1369 5.1016 19.0698 4.8919 18.9426C4.68221 18.8154 4.51159 18.6328 4.39877 18.4151C3.54375 16.6806 3.17544 14.7465 3.33311 12.8192C3.49078 10.8918 4.16852 9.04336 5.29407 7.47088C6.41963 5.8984 7.9508 4.66082 9.72437 3.89009C11.4979 3.11936 13.4474 2.84436 15.365 3.09442C16.3352 3.20846 17.2842 3.46033 18.1833 3.84242C18.3945 3.94576 18.6292 3.99154 18.8638 3.97512C19.0983 3.95871 19.3243 3.88068 19.5191 3.74892C19.7219 3.61527 19.8845 3.42883 19.9893 3.20966C20.0941 2.99048 20.1371 2.74689 20.1137 2.50508C20.0904 2.26327 20.0015 2.03241 19.8567 1.83735C19.7119 1.64229 19.5167 1.49041 19.292 1.39806C16.7116 0.291629 13.8483 0.0263972 11.1086 0.640038C8.36894 1.25368 5.89229 2.71499 4.03045 4.81639C2.16862 6.9178 1.01627 9.55244 0.737107 12.3461C0.457942 15.1397 1.06615 17.9503 2.47534 20.3786C2.70844 20.7823 3.04314 21.118 3.44618 21.3524C3.84922 21.5867 4.30657 21.7115 4.77277 21.7143H23.2724C23.7431 21.7161 24.206 21.5936 24.6141 21.359C25.0223 21.1245 25.3612 20.7862 25.5966 20.3786C26.6282 18.5906 27.2315 16.5879 27.3589 14.5276C27.4864 12.4673 27.1346 10.4055 26.3312 8.50406C26.2294 8.28735 26.0713 8.10198 25.8733 7.96733C25.6754 7.83269 25.4449 7.75373 25.2059 7.73871C24.967 7.72369 24.7284 7.77317 24.5152 7.88196C24.3019 7.99076 24.1218 8.15487 23.9937 8.35713Z" fill="url(#paint0_linear_47_464)"/>
<path d="M12.1452 11.8166C11.6439 12.3179 11.3623 12.9977 11.3623 13.7066C11.3623 14.0577 11.4314 14.4052 11.5658 14.7295C11.7001 15.0538 11.897 15.3485 12.1452 15.5967C12.3934 15.8449 12.688 16.0418 13.0123 16.1761C13.3366 16.3104 13.6842 16.3796 14.0352 16.3796C14.7441 16.3796 15.424 16.098 15.9253 15.5967L23.4854 4.25647L12.1452 11.8166Z" fill="url(#paint1_linear_47_464)"/>
<defs>
<linearGradient id="paint0_linear_47_464" x1="14.0277" y1="0.317078" x2="14.0277" y2="21.7143" gradientUnits="userSpaceOnUse">
<stop stop-color="#FFBB00"/>
<stop offset="1" stop-color="#F2A60C"/>
</linearGradient>
<linearGradient id="paint1_linear_47_464" x1="17.4239" y1="4.25647" x2="17.4239" y2="16.3796" gradientUnits="userSpaceOnUse">
<stop stop-color="#FFBB00"/>
<stop offset="1" stop-color="#F2A60C"/>
</linearGradient>
</defs>
</svg>
