<svg width="30" height="30" viewBox="0 0 30 30" fill="none" xmlns="http://www.w3.org/2000/svg">
<path d="M15.0283 9.68569C12.0764 9.68569 9.68545 12.0766 9.68545 15.0286C9.68545 17.9805 12.0764 20.3714 15.0283 20.3714C17.9802 20.3714 20.3712 17.9805 20.3712 15.0286C20.3712 12.0766 17.9802 9.68569 15.0283 9.68569ZM26.9696 13.6928C26.667 10.9842 25.4524 8.45889 23.5252 6.53166C21.598 4.60444 19.0727 3.38982 16.364 3.08726V1.67141C16.364 0.936765 15.7629 0.335693 15.0283 0.335693C14.2937 0.335693 13.6926 0.936765 13.6926 1.67141V3.08726C10.9839 3.38982 8.45865 4.60444 6.53142 6.53166C4.60419 8.45889 3.38958 10.9842 3.08702 13.6928H1.67116C0.936521 13.6928 0.335449 14.2939 0.335449 15.0286C0.335449 15.7632 0.936521 16.3643 1.67116 16.3643H3.08702C3.38958 19.0729 4.60419 21.5982 6.53142 23.5254C8.45865 25.4527 10.9839 26.6673 13.6926 26.9698V28.3857C13.6926 29.1203 14.2937 29.7214 15.0283 29.7214C15.7629 29.7214 16.364 29.1203 16.364 28.3857V26.9698C19.0727 26.6673 21.598 25.4527 23.5252 23.5254C25.4524 21.5982 26.667 19.0729 26.9696 16.3643H28.3854C29.1201 16.3643 29.7212 15.7632 29.7212 15.0286C29.7212 14.2939 29.1201 13.6928 28.3854 13.6928H26.9696ZM15.0283 24.3785C9.85909 24.3785 5.67831 20.1978 5.67831 15.0286C5.67831 9.85934 9.85909 5.67855 15.0283 5.67855C20.1975 5.67855 24.3783 9.85934 24.3783 15.0286C24.3783 20.1978 20.1975 24.3785 15.0283 24.3785Z" fill="url(#paint0_linear_48_146)"/>
<defs>
<linearGradient id="paint0_linear_48_146" x1="15.0283" y1="0.335693" x2="15.0283" y2="29.7214" gradientUnits="userSpaceOnUse">
<stop stop-color="#FFBB00"/>
<stop offset="1" stop-color="#F2A60C"/>
</linearGradient>
</defs>
</svg>
