<svg width="28" height="24" viewBox="0 0 28 24" fill="none" xmlns="http://www.w3.org/2000/svg">
<path d="M20.7076 18.6938C18.9044 18.6938 17.769 19.2548 16.7672 19.7623C15.899 20.2031 15.1911 20.5638 14.029 20.5638C12.8269 20.5638 12.159 20.2298 11.2908 19.7623C10.289 19.2548 9.19373 18.6938 7.35045 18.6938C5.50716 18.6938 4.41188 19.2548 3.41009 19.7623C2.83573 20.0562 2.32816 20.31 1.71373 20.4569C1.11266 20.5905 0.671875 21.0713 0.671875 21.6724V21.806C0.671875 22.6074 1.41988 23.1818 2.19459 23.0215C3.18302 22.8211 3.93102 22.4471 4.61223 22.0998C5.48045 21.6591 6.17502 21.2984 7.35045 21.2984C8.52587 21.2984 9.22045 21.6323 10.0887 22.0998C11.0904 22.6074 12.1857 23.1684 14.029 23.1684C15.8723 23.1684 16.9676 22.6074 17.9694 22.0998C18.8376 21.6591 19.5455 21.2984 20.7076 21.2984C21.9097 21.2984 22.5776 21.6323 23.4458 22.0998C24.1404 22.4471 24.8884 22.8345 25.8902 23.0348C26.0706 23.0701 26.2566 23.0652 26.435 23.0207C26.6133 22.9761 26.7798 22.8929 26.9225 22.777C27.0651 22.6611 27.1806 22.5152 27.2608 22.3497C27.3409 22.1842 27.3837 22.0032 27.3862 21.8193V21.6991C27.3862 21.0847 26.932 20.6038 26.3309 20.4703C25.7165 20.3367 25.2223 20.0829 24.6479 19.7757C23.6462 19.2548 22.5108 18.6938 20.7076 18.6938ZM20.7076 12.7498C18.9044 12.7498 17.769 13.3242 16.7672 13.8184C15.899 14.2458 15.1911 14.6198 14.029 14.6198C12.8269 14.6198 12.159 14.2859 11.2908 13.8184C10.289 13.3108 9.19373 12.7498 7.35045 12.7498C5.50716 12.7498 4.41188 13.3242 3.41009 13.8184C2.83573 14.0989 2.32816 14.3661 1.70037 14.513C1.11266 14.6466 0.671875 15.1274 0.671875 15.7285V15.8621C0.671951 16.0467 0.713179 16.229 0.792558 16.3956C0.871937 16.5623 0.987471 16.7092 1.13076 16.8256C1.27404 16.9421 1.44148 17.0251 1.62088 17.0687C1.80029 17.1122 1.98715 17.1153 2.16787 17.0776C3.16966 16.8772 3.91766 16.4898 4.61223 16.1559C5.48045 15.6884 6.1483 15.3545 7.35045 15.3545C8.55259 15.3545 9.22045 15.6884 10.0887 16.1559C11.0904 16.6635 12.1857 17.2245 14.029 17.2245C15.8723 17.2245 16.9676 16.6501 17.9694 16.1559C18.8376 15.6884 19.5054 15.3545 20.7076 15.3545C21.9097 15.3545 22.5776 15.6884 23.4458 16.1559C24.1404 16.5032 24.8884 16.8906 25.8902 17.0909C26.0717 17.1263 26.2588 17.1212 26.4382 17.0759C26.6175 17.0306 26.7846 16.9462 26.9276 16.8288C27.0705 16.7114 27.1857 16.5638 27.265 16.3967C27.3443 16.2296 27.3856 16.047 27.3862 15.8621V15.7418C27.3862 15.1274 26.932 14.6466 26.3309 14.513C25.7165 14.3794 25.2223 14.1256 24.6479 13.8184C23.6462 13.3108 22.5108 12.7498 20.7076 12.7498ZM24.6479 1.95727C23.6462 1.4497 22.5375 0.888702 20.7076 0.888702C18.8777 0.888702 17.769 1.4497 16.7672 1.95727C15.899 2.3847 15.1911 2.7587 14.029 2.7587C12.8269 2.7587 12.159 2.42477 11.2908 1.95727C10.289 1.46306 9.19373 0.888702 7.35045 0.888702C5.50716 0.888702 4.41188 1.4497 3.41009 1.95727C2.83573 2.25113 2.32816 2.50492 1.71373 2.65185C1.11266 2.78542 0.671875 3.26627 0.671875 3.86735V3.96085C0.671875 4.76227 1.39316 5.34999 2.16787 5.1897C3.16966 4.98935 3.91766 4.60199 4.61223 4.26806C5.48045 3.82727 6.17502 3.46663 7.35045 3.46663C8.52587 3.46663 9.22045 3.80056 10.0887 4.26806C11.0904 4.77563 12.1857 5.33663 14.029 5.33663C15.8723 5.33663 16.9676 4.76227 17.9694 4.26806C18.8376 3.84063 19.5455 3.46663 20.7076 3.46663C21.9097 3.46663 22.5776 3.80056 23.4458 4.26806C24.1404 4.61535 24.8884 5.0027 25.8902 5.20306C26.0717 5.23848 26.2588 5.23335 26.4382 5.18804C26.6175 5.14272 26.7846 5.05835 26.9276 4.94094C27.0705 4.82353 27.1857 4.67599 27.265 4.50887C27.3443 4.34175 27.3856 4.15917 27.3862 3.9742V3.85399C27.3862 3.23956 26.932 2.7587 26.3309 2.62513C25.7165 2.49156 25.2223 2.25113 24.6479 1.95727ZM20.7076 6.80592C18.9044 6.80592 17.769 7.38027 16.7672 7.87449C15.899 8.34199 15.2312 8.67592 14.029 8.67592C12.8269 8.67592 12.159 8.34199 11.2908 7.87449C10.289 7.36692 9.19373 6.80592 7.35045 6.80592C5.50716 6.80592 4.41188 7.38027 3.41009 7.87449C2.83573 8.1817 2.34152 8.43549 1.72709 8.56906C1.12602 8.70263 0.671875 9.18349 0.671875 9.79792V9.91813C0.671951 10.1028 0.713179 10.285 0.792558 10.4517C0.871937 10.6184 0.987471 10.7653 1.13076 10.8817C1.27404 10.9981 1.44148 11.0812 1.62088 11.1247C1.80029 11.1683 1.98715 11.1713 2.16787 11.1336C3.16966 10.9333 3.91766 10.5459 4.61223 10.212C5.48045 9.78456 6.18837 9.41056 7.35045 9.41056C8.51252 9.41056 9.22045 9.74449 10.0887 10.212C11.0904 10.7196 12.1857 11.2806 14.029 11.2806C15.8723 11.2806 16.9676 10.7062 17.9694 10.212C18.8376 9.78456 19.5455 9.41056 20.7076 9.41056C21.9097 9.41056 22.5776 9.74449 23.4458 10.212C24.1404 10.5593 24.8884 10.9466 25.8902 11.147C26.0706 11.1822 26.2566 11.1774 26.435 11.1328C26.6133 11.0883 26.7798 11.0051 26.9225 10.8891C27.0651 10.7732 27.1806 10.6273 27.2608 10.4619C27.3409 10.2964 27.3837 10.1153 27.3862 9.93149V9.81127C27.3862 9.19685 26.932 8.71599 26.3309 8.58242C25.7165 8.44885 25.2223 8.19506 24.6479 7.88785C23.6462 7.36692 22.5108 6.80592 20.7076 6.80592Z" fill="url(#paint0_linear_48_107)"/>
<defs>
<linearGradient id="paint0_linear_48_107" x1="14.029" y1="0.888702" x2="14.029" y2="23.1684" gradientUnits="userSpaceOnUse">
<stop stop-color="#FFBB00"/>
<stop offset="1" stop-color="#F2A60C"/>
</linearGradient>
</defs>
</svg>
