<svg width="52" height="52" viewBox="0 0 52 52" fill="none" xmlns="http://www.w3.org/2000/svg">
<path d="M48 38C48 39.1046 48.8954 40 50 40C51.1046 40 52 39.1046 52 38C52 36.8954 51.1046 36 50 36C48.8954 36 48 36.8954 48 38Z" fill="#DEDEDE"/>
<path d="M48 50C48 51.1046 48.8954 52 50 52C51.1046 52 52 51.1046 52 50C52 48.8954 51.1046 48 50 48C48.8954 48 48 48.8954 48 50Z" fill="#DEDEDE"/>
<path d="M24 14C24 15.1046 24.8954 16 26 16C27.1046 16 28 15.1046 28 14C28 12.8954 27.1046 12 26 12C24.8954 12 24 12.8954 24 14Z" fill="#DEDEDE"/>
<path d="M24 26C24 27.1046 24.8954 28 26 28C27.1046 28 28 27.1046 28 26C28 24.8954 27.1046 24 26 24C24.8954 24 24 24.8954 24 26Z" fill="#DEDEDE"/>
<path d="M24 38C24 39.1046 24.8954 40 26 40C27.1046 40 28 39.1046 28 38C28 36.8954 27.1046 36 26 36C24.8954 36 24 36.8954 24 38Z" fill="#DEDEDE"/>
<path d="M24 50C24 51.1046 24.8954 52 26 52C27.1046 52 28 51.1046 28 50C28 48.8954 27.1046 48 26 48C24.8954 48 24 48.8954 24 50Z" fill="#DEDEDE"/>
<path d="M36 14C36 15.1046 36.8954 16 38 16C39.1046 16 40 15.1046 40 14C40 12.8954 39.1046 12 38 12C36.8954 12 36 12.8954 36 14Z" fill="#DEDEDE"/>
<path d="M36 26C36 27.1046 36.8954 28 38 28C39.1046 28 40 27.1046 40 26C40 24.8954 39.1046 24 38 24C36.8954 24 36 24.8954 36 26Z" fill="#DEDEDE"/>
<path d="M36 38C36 39.1046 36.8954 40 38 40C39.1046 40 40 39.1046 40 38C40 36.8954 39.1046 36 38 36C36.8954 36 36 36.8954 36 38Z" fill="#DEDEDE"/>
<path d="M36 50C36 51.1046 36.8954 52 38 52C39.1046 52 40 51.1046 40 50C40 48.8954 39.1046 48 38 48C36.8954 48 36 48.8954 36 50Z" fill="#DEDEDE"/>
<path d="M12 2C12 3.10457 12.8954 4 14 4C15.1046 4 16 3.10457 16 2C16 0.895427 15.1046 -3.2255e-06 14 -3.32207e-06C12.8954 -3.41863e-06 12 0.895427 12 2Z" fill="#DEDEDE"/>
<path d="M12 14C12 15.1046 12.8954 16 14 16C15.1046 16 16 15.1046 16 14C16 12.8954 15.1046 12 14 12C12.8954 12 12 12.8954 12 14Z" fill="#DEDEDE"/>
<path d="M12 26C12 27.1046 12.8954 28 14 28C15.1046 28 16 27.1046 16 26C16 24.8954 15.1046 24 14 24C12.8954 24 12 24.8954 12 26Z" fill="#DEDEDE"/>
<path d="M12 38C12 39.1046 12.8954 40 14 40C15.1046 40 16 39.1046 16 38C16 36.8954 15.1046 36 14 36C12.8954 36 12 36.8954 12 38Z" fill="#DEDEDE"/>
<path d="M12 50C12 51.1046 12.8954 52 14 52C15.1046 52 16 51.1046 16 50C16 48.8954 15.1046 48 14 48C12.8954 48 12 48.8954 12 50Z" fill="#DEDEDE"/>
<path d="M-1.74846e-07 2C-2.7141e-07 3.10456 0.895431 4 2 4C3.10457 4 4 3.10457 4 2C4 0.895426 3.10457 -4.27457e-06 2 -4.37114e-06C0.895432 -4.4677e-06 -7.8281e-08 0.895426 -1.74846e-07 2Z" fill="#DEDEDE"/>
<path d="M-1.22392e-06 14C-1.32048e-06 15.1046 0.89543 16 2 16C3.10457 16 4 15.1046 4 14C4 12.8954 3.10457 12 2 12C0.89543 12 -1.12735e-06 12.8954 -1.22392e-06 14Z" fill="#DEDEDE"/>
<path d="M-2.27299e-06 26C-2.36956e-06 27.1046 0.895429 28 2 28C3.10457 28 4 27.1046 4 26C4 24.8954 3.10457 24 2 24C0.895429 24 -2.17643e-06 24.8954 -2.27299e-06 26Z" fill="#DEDEDE"/>
<path d="M-3.32207e-06 38C-3.41863e-06 39.1046 0.895428 40 2 40C3.10456 40 4 39.1046 4 38C4 36.8954 3.10457 36 2 36C0.895428 36 -3.2255e-06 36.8954 -3.32207e-06 38Z" fill="#DEDEDE"/>
<path d="M-4.37114e-06 50C-4.4677e-06 51.1046 0.895427 52 2 52C3.10456 52 4 51.1046 4 50C4 48.8954 3.10456 48 2 48C0.895427 48 -4.27457e-06 48.8954 -4.37114e-06 50Z" fill="#DEDEDE"/>
</svg>
