<svg width="20" height="17" viewBox="0 0 20 17" fill="none" xmlns="http://www.w3.org/2000/svg">
<path d="M17.4599 7C17.3613 7.14578 17.3029 7.31501 17.2906 7.49059C17.2783 7.66618 17.3126 7.8419 17.3899 8C17.6379 8.579 17.8129 9.187 17.9099 9.81C18.1674 11.4201 17.9266 13.0705 17.2199 14.54C17.1341 14.7012 17.0058 14.8358 16.8489 14.9292C16.692 15.0226 16.5125 15.0713 16.3299 15.07H3.67994C3.49631 15.0704 3.31613 15.0202 3.15913 14.9249C3.00214 14.8297 2.87441 14.693 2.78994 14.53C2.14982 13.2314 1.87408 11.7835 1.99213 10.3406C2.11017 8.89762 2.61756 7.51376 3.46022 6.3365C4.30288 5.15924 5.44922 4.23271 6.77702 3.65569C8.10483 3.07867 9.56433 2.87279 10.9999 3.06C11.7263 3.14538 12.4368 3.33394 13.1099 3.62C13.268 3.69737 13.4438 3.73164 13.6193 3.71935C13.7949 3.70706 13.9642 3.64864 14.1099 3.55C14.2618 3.44994 14.3835 3.31036 14.462 3.14628C14.5404 2.98219 14.5727 2.79982 14.5552 2.61878C14.5377 2.43775 14.4712 2.26492 14.3628 2.11888C14.2543 1.97284 14.1082 1.85914 13.9399 1.79C12.0081 0.961657 9.86444 0.763087 7.81335 1.2225C5.76226 1.68191 3.90808 2.77594 2.5142 4.34918C1.12031 5.92243 0.257592 7.89489 0.0485913 9.98638C-0.160409 12.0779 0.294935 14.182 1.34994 16C1.52445 16.3023 1.77503 16.5536 2.07677 16.7291C2.37852 16.9045 2.72092 16.9979 3.06994 17H16.9199C17.2724 17.0014 17.6189 16.9096 17.9244 16.734C18.23 16.5584 18.4837 16.3052 18.6599 16C19.4323 14.6614 19.884 13.1621 19.9794 11.6196C20.0748 10.0772 19.8114 8.53356 19.2099 7.11C19.1338 6.94776 19.0154 6.80898 18.8672 6.70817C18.719 6.60737 18.5464 6.54826 18.3675 6.53701C18.1886 6.52577 18.01 6.56281 17.8503 6.64426C17.6907 6.72571 17.5558 6.84858 17.4599 7Z" fill="url(#paint0_linear_43_464)"/>
<path d="M8.59002 9.59C8.21474 9.96528 8.00391 10.4743 8.00391 11.005C8.00391 11.2678 8.05567 11.528 8.15623 11.7708C8.2568 12.0136 8.4042 12.2342 8.59002 12.42C8.77584 12.6058 8.99644 12.7532 9.23923 12.8538C9.48201 12.9544 9.74223 13.0061 10.005 13.0061C10.5357 13.0061 11.0447 12.7953 11.42 12.42L17.08 3.93L8.59002 9.59Z" fill="url(#paint1_linear_43_464)"/>
<defs>
<linearGradient id="paint0_linear_43_464" x1="9.99874" y1="0.980709" x2="9.99874" y2="17" gradientUnits="userSpaceOnUse">
<stop stop-color="#FFBB00"/>
<stop offset="1" stop-color="#F2A60C"/>
</linearGradient>
<linearGradient id="paint1_linear_43_464" x1="12.542" y1="3.93" x2="12.542" y2="13.0061" gradientUnits="userSpaceOnUse">
<stop stop-color="#FFBB00"/>
<stop offset="1" stop-color="#F2A60C"/>
</linearGradient>
</defs>
</svg>
